<svg width="800" height="217" viewBox="0 0 800 217" xmlns="http://www.w3.org/2000/svg"><rect width="800" height="217" rx="0" fill="#0d1117"/><rect width="798" height="215" x="1" y="1" rx="0" fill="none" stroke="#21262d" stroke-width="1"/><rect width="800" height="36" rx="0" fill="#161b22"/><rect y="28" width="800" height="8" fill="#161b22"/><text x="20" y="23" font-family="Segoe UI,Arial,sans-serif" font-size="10" fill="#e06c75" letter-spacing="1.2" font-weight="700">RECENTLY WATCHED · letterboxd.com/ajax_rn</text><line x1="20" y1="36" x2="780" y2="36" stroke="#21262d" stroke-width="1"/><text x="20" y="52" font-family="Segoe UI,Arial,sans-serif" font-size="13" fill="#e6edf3" font-weight="500">Vivarium, 2019 - ★★★★★</text><text x="780" y="52" text-anchor="end" font-family="Segoe UI,Arial,sans-serif" font-size="12" fill="#f9c74f">★★★★★</text><line x1="20" y1="61" x2="780" y2="61" stroke="#21262d" stroke-width="1" opacity="0.6"/><text x="20" y="79" font-family="Segoe UI,Arial,sans-serif" font-size="13" fill="#e6edf3" font-weight="500">Point Break, 1991 - ★★★★★</text><text x="780" y="79" text-anchor="end" font-family="Segoe UI,Arial,sans-serif" font-size="12" fill="#f9c74f">★★★★★</text><line x1="20" y1="88" x2="780" y2="88" stroke="#21262d" stroke-width="1" opacity="0.6"/><text x="20" y="106" font-family="Segoe UI,Arial,sans-serif" font-size="13" fill="#e6edf3" font-weight="500">Amélie, 2001 - ★★★★★</text><text x="780" y="106" text-anchor="end" font-family="Segoe UI,Arial,sans-serif" font-size="12" fill="#f9c74f">★★★★★</text><line x1="20" y1="115" x2="780" y2="115" stroke="#21262d" stroke-width="1" opacity="0.6"/><text x="20" y="133" font-family="Segoe UI,Arial,sans-serif" font-size="13" fill="#e6edf3" font-weight="500">Lion, 2016 - ★★★★½</text><text x="780" y="133" text-anchor="end" font-family="Segoe UI,Arial,sans-serif" font-size="12" fill="#f9c74f">★★★★½</text><line x1="20" y1="142" x2="780" y2="142" stroke="#21262d" stroke-width="1" opacity="0.6"/><text x="20" y="160" font-family="Segoe UI,Arial,sans-serif" font-size="13" fill="#e6edf3" font-weight="500">A Real Pain, 2024 - ★★★½</text><text x="780" y="160" text-anchor="end" font-family="Segoe UI,Arial,sans-serif" font-size="12" fill="#f9c74f">★★★½☆</text><line x1="20" y1="199" x2="780" y2="199" stroke="#21262d" stroke-width="1"/><text x="780" y="210" font-family="Segoe UI,Arial,sans-serif" font-size="9" fill="#484f58" text-anchor="end">26 Aug 2026 UTC</text></svg>